<svg version="1.1" id="Layer_1" xmlns="http://www.w3.org/2000/svg" xmlns:xlink="http://www.w3.org/1999/xlink" x="0px" y="0px"
	 width="100%" viewBox="0 0 184 274" enable-background="new 0 0 184 274" xml:space="preserve">
<path fill="#FEFEFE" opacity="1.000000" stroke="none" 
	d="
M0.999998,124.000000 
	C1.000000,83.086418 1.000000,42.172829 1.000000,1.000000 
	C29.020361,1.000000 57.041523,1.000000 85.393784,1.359117 
	C64.861137,5.717724 51.137001,22.885824 51.026089,45.447102 
	C50.912216,68.610497 50.952751,91.775070 51.043842,114.938667 
	C51.060799,119.250801 51.369736,123.600266 52.000156,127.865059 
	C55.234703,149.746628 75.104263,164.932526 97.009613,162.413940 
	C119.319633,159.848816 134.297638,143.791901 134.855347,120.291367 
	C135.444290,95.475357 135.368698,70.625923 134.848831,45.806477 
	C134.378433,23.349838 122.755730,7.781474 103.901131,2.520297 
	C102.254242,2.060750 100.633102,1.508950 99.000000,1.000000 
	C127.606827,1.000000 156.213654,1.000000 185.000000,1.000000 
	C185.000000,42.020721 185.000000,83.041702 184.651917,124.436600 
	C182.042892,118.505592 177.902176,115.353722 172.730255,116.000839 
	C167.194412,116.693489 164.212204,120.698952 163.618561,127.770142 
	C163.243546,132.236862 162.942184,136.778152 161.880341,141.107605 
	C155.481842,167.196075 139.533600,185.051666 114.010414,193.214462 
	C88.700470,201.309067 65.646294,195.662308 45.836132,178.114288 
	C30.333775,164.382187 22.964596,146.663010 22.286770,126.044563 
	C22.107256,120.584000 19.066750,116.780861 14.509210,115.849327 
	C9.228256,114.769943 5.272336,116.739548 2.607079,121.714828 
	C2.170559,122.529686 1.540569,123.240891 0.999998,124.000000 
z"/>
<path fill="#010101" opacity="1.000000" stroke="none" 
	d="
M98.536819,1.000000 
	C100.633102,1.508950 102.254242,2.060750 103.901131,2.520297 
	C122.755730,7.781474 134.378433,23.349838 134.848831,45.806477 
	C135.368698,70.625923 135.444290,95.475357 134.855347,120.291367 
	C134.297638,143.791901 119.319633,159.848816 97.009613,162.413940 
	C75.104263,164.932526 55.234703,149.746628 52.000156,127.865059 
	C51.369736,123.600266 51.060799,119.250801 51.043842,114.938667 
	C50.952751,91.775070 50.912216,68.610497 51.026089,45.447102 
	C51.137001,22.885824 64.861137,5.717724 85.862442,1.359117 
	C90.024544,1.000000 94.049088,1.000000 98.536819,1.000000 
z"/>
<path fill="#020202" opacity="1.000000" stroke="none" 
	d="
M0.999998,124.449982 
	C1.540569,123.240891 2.170559,122.529686 2.607079,121.714828 
	C5.272336,116.739548 9.228256,114.769943 14.509210,115.849327 
	C19.066750,116.780861 22.107256,120.584000 22.286770,126.044563 
	C22.964596,146.663010 30.333775,164.382187 45.836132,178.114288 
	C65.646294,195.662308 88.700470,201.309067 114.010414,193.214462 
	C139.533600,185.051666 155.481842,167.196075 161.880341,141.107605 
	C162.942184,136.778152 163.243546,132.236862 163.618561,127.770142 
	C164.212204,120.698952 167.194412,116.693489 172.730255,116.000839 
	C177.902176,115.353722 182.042892,118.505592 184.651917,124.905258 
	C185.000000,127.041664 185.000000,129.083328 184.621063,131.708496 
	C183.892532,134.587006 183.508255,136.877335 183.198547,139.177704 
	C177.945541,178.194901 146.183640,210.311584 107.021660,216.053101 
	C104.169228,216.471283 103.148293,217.414658 103.187439,220.419830 
	C103.356544,233.399445 103.260193,246.382523 103.260040,259.364349 
	C103.259918,270.140533 102.269043,271.650177 93.000000,275.000000 
	C92.555557,275.000000 92.111107,275.000000 91.204681,274.673584 
	C85.069580,272.515228 82.660728,268.576019 82.703575,262.671021 
	C82.813454,247.526016 82.740265,232.379684 82.740265,217.066727 
	C81.441528,216.721252 80.355255,216.311661 79.233345,216.151337 
	C42.629929,210.919937 11.535424,181.842773 3.916093,145.725510 
	C3.017943,141.468079 1.975535,137.241104 1.000000,133.000000 
	C1.000000,130.299988 1.000000,127.599968 0.999998,124.449982 
z"/>
<path fill="#FEFEFE" opacity="1.000000" stroke="none" 
	d="
M93.468658,275.000000 
	C102.269043,271.650177 103.259918,270.140533 103.260040,259.364349 
	C103.260193,246.382523 103.356544,233.399445 103.187439,220.419830 
	C103.148293,217.414658 104.169228,216.471283 107.021660,216.053101 
	C146.183640,210.311584 177.945541,178.194901 183.198547,139.177704 
	C183.508255,136.877335 183.892532,134.587006 184.621063,132.145996 
	C185.000000,179.577774 185.000000,227.155563 185.000000,275.000000 
	C154.646286,275.000000 124.291801,275.000000 93.468658,275.000000 
z"/>
<path fill="#FEFEFE" opacity="1.000000" stroke="none" 
	d="
M1.000000,133.468658 
	C1.975535,137.241104 3.017943,141.468079 3.916093,145.725510 
	C11.535424,181.842773 42.629929,210.919937 79.233345,216.151337 
	C80.355255,216.311661 81.441528,216.721252 82.740265,217.066727 
	C82.740265,232.379684 82.813454,247.526016 82.703575,262.671021 
	C82.660728,268.576019 85.069580,272.515228 90.871346,274.673584 
	C61.056671,275.000000 31.113338,275.000000 1.000000,275.000000 
	C1.000000,227.979248 1.000000,180.958282 1.000000,133.468658 
z"/>
</svg>